<svg xmlns="http://www.w3.org/2000/svg" width="411.976" height="294.59" viewBox="0 0 411.976 294.59">
  <g id="Scooter_Two_Color" data-name="Scooter_Two Color" transform="translate(0 0)">
    <path id="Path_40081" data-name="Path 40081" d="M257.7,218.171s53.782,7.139,55.822-21.948-8.839-32.745,14.278-42.468,6.8,22.873,25.837,19.147-6.8-34.282,10.2-41.435,46.235,5.086,37.4,28.883-32.637,18.725-34,35.873,29.916,34.146,2.72,47.4c-14.346,7-26.054,2.149-33.9-4.012a32.135,32.135,0,0,0-26.395-6.486,61.193,61.193,0,0,1-40.986-5.562Z" transform="translate(9.116 -12.787)" fill="#e6e6e6" opacity="0.54"/>
    <path id="Path_40082" data-name="Path 40082" d="M173.956,207.642s-.367,5.018-4.392,6.527-3.971,5.861,0,5.861,12.239-7.452,12.239-7.452l-1.945-5.888Z" transform="translate(-23.679 15.013)" fill="#68e1fd"/>
    <path id="Path_40083" data-name="Path 40083" d="M173.956,207.642s-.367,5.018-4.392,6.527-3.971,5.861,0,5.861,12.239-7.452,12.239-7.452l-1.945-5.888Z" transform="translate(-23.679 15.013)" opacity="0.08"/>
    <path id="Path_40084" data-name="Path 40084" d="M176.032,138.542s-15.312-5.97-16.821,0,19.106,8.676,19.106,8.676Z" transform="translate(-26.354 -10.465)" fill="#f4a28c"/>
    <path id="Path_40085" data-name="Path 40085" d="M176.032,138.542s-15.312-5.97-16.821,0,19.106,8.676,19.106,8.676Z" transform="translate(-26.354 -10.465)" opacity="0.08"/>
    <ellipse id="Ellipse_673" data-name="Ellipse 673" cx="181.281" cy="22.941" rx="181.281" ry="22.941" transform="translate(0 248.709)" fill="#e6e6e6" opacity="0.45"/>
    <path id="Path_40086" data-name="Path 40086" d="M149.731,67.344s-.748,10.049,1.033,16.7a5.059,5.059,0,0,0,6.187,3.576c3.332-.938,7.574-3.182,8.635-8.526l2.9-8.839A9.056,9.056,0,0,0,164.4,60.64C158.679,56.629,149.881,61.2,149.731,67.344Z" transform="translate(-29.793 -38.087)" fill="#f4a28c"/>
    <path id="Path_40087" data-name="Path 40087" d="M156.53,66.86l29.93,13.925-8.853,15.951L159.834,80.622Z" transform="translate(-27.29 -35.305)" fill="#f4a28c"/>
    <path id="Path_40088" data-name="Path 40088" d="M153.863,69.4a39.2,39.2,0,0,0,9.288-.83,8.39,8.39,0,0,0,.109,9.22,6.8,6.8,0,0,0,8.309,2.625l-.34-12.987a10.254,10.254,0,0,0-5.3-9.084,37.629,37.629,0,0,0-4.351-2.067c-3.753-1.442-9.179,1.115-12.551-1.36a2.434,2.434,0,0,0-3.835,1.632c-.53,3.957.258,10.131,5.6,12.239A9.52,9.52,0,0,0,153.863,69.4Z" transform="translate(-31.422 -39.766)" fill="#24285b"/>
    <path id="Path_40089" data-name="Path 40089" d="M157.65,72.371s0-3.876,2.937-3.617,2.924,5.875-1.033,6.446Z" transform="translate(-26.887 -34.628)" fill="#f4a28c"/>
    <path id="Path_40090" data-name="Path 40090" d="M150.389,69.84l-2.72,3.916a1.618,1.618,0,0,0,1.034,2.529l3.862.666Z" transform="translate(-30.586 -34.232)" fill="#f4a28c"/>
    <path id="Path_40091" data-name="Path 40091" d="M171.26,152.225l34.649-8.785s-35.084-14.455-26.585-40.483,55.958,48.016,55.958,48.016l-60.731,10.8Z" transform="translate(-21.99 -24.311)" fill="#68e1fd"/>
    <path id="Path_40092" data-name="Path 40092" d="M171.26,152.225l34.649-8.785s-35.084-14.455-26.585-40.483,55.958,48.016,55.958,48.016l-60.731,10.8Z" transform="translate(-21.99 -24.311)" opacity="0.08"/>
    <path id="Path_40093" data-name="Path 40093" d="M308.485,150.261s3.508,32.636-36.648,30.121c-20.642-1.278-44.521-1.577-62.866-1.564A25.075,25.075,0,0,0,184.3,208.231l3.427,19.609-13.3,2.991-5.086-21.295a48.18,48.18,0,0,1,33.071-57.25L227.6,144.74Z" transform="translate(-23.148 -7.28)" fill="#24285b"/>
    <path id="Path_40094" data-name="Path 40094" d="M195.7,151.392s-32.024,7.37-30.515,43.9l6.8,33.751,8.893-1.659s-9.261-64.851,24.627-73.513V149.91Z" transform="translate(-24.195 -5.42)" fill="#24285b"/>
    <path id="Path_40095" data-name="Path 40095" d="M167.942,100.7l15.189-22.125s15.706-7.914,49.349-4.909,81.822,29.1,76.818,102.41l-72.154,1.754s16.1-22.778-13.952-24.273S156.438,143.172,167.942,100.7Z" transform="translate(-23.962 -33.099)" fill="#68e1fd"/>
    <path id="Path_40096" data-name="Path 40096" d="M212.22,95.67s52.109,8,54.013,72.888L214.64,170.8l7.724-25.4Z" transform="translate(-7.25 -24.938)" opacity="0.08"/>
    <path id="Path_40097" data-name="Path 40097" d="M210.447,68s-42.645,2.72-42.917,33.561S191,147.143,215.125,152.637c29.563,6.731,59.425-9.247,67.163-41.788l-11.423-10.8s-6.8,33.14-37.668,30.882-80.53-39.354-12.239-52.612Z" transform="translate(-23.332 -34.895)" fill="#24285b"/>
    <path id="Path_40098" data-name="Path 40098" d="M200.875,85.461a17.27,17.27,0,0,0-22.084,22.166l.218.571c7.533,19.337,46.942,42.93,46.942,42.93l-53.211,9.029,2.5,12.239s56.243,10.8,76.818-6.024C271,150.992,244.567,101.263,200.875,85.461Z" transform="translate(-21.457 -28.98)" fill="#68e1fd"/>
    <path id="Path_40099" data-name="Path 40099" d="M200.875,85.461a17.27,17.27,0,0,0-22.084,22.166l.218.571c7.533,19.337,46.942,42.93,46.942,42.93l-53.211,9.029,2.5,12.239s56.243,10.8,76.818-6.024C271,150.992,244.567,101.263,200.875,85.461Z" transform="translate(-21.457 -28.98)" fill="#fff" opacity="0.46"/>
    <path id="Path_40100" data-name="Path 40100" d="M204.18,245.263h49.77L289.2,209.8,279.162,193.29,210.87,217.645Z" transform="translate(-10.143 10.191)" fill="#24285b"/>
    <path id="Path_40101" data-name="Path 40101" d="M194.61,83.285s-4.147-25.307,16.577-33.221c19.432-7.452,75.009,2.461,91.83,52.939a14.36,14.36,0,0,1-4.868,15.829l-5.834,4.542a18.181,18.181,0,0,1-25.606-3.182C255.545,105.587,233.406,85.733,194.61,83.285Z" transform="translate(-13.709 -42.143)" fill="#24285b"/>
    <path id="Path_40102" data-name="Path 40102" d="M163.339,132.43l-6.2.843a10.158,10.158,0,0,0-8.662,11.64l.748,4.8a10.62,10.62,0,0,0,10.484,8.961h.353s-34.8,29.971-39.572,52.109l38.837,47.024a26.042,26.042,0,0,0,20.085,9.519H234.3s15.23-37.913,81.754-40.918c0,0,6.8-17.583-11.545-33.139L234.3,198.029l-15.407,10.294,1.931,13.422a19.908,19.908,0,0,1-13.1,21.649h0a27.116,27.116,0,0,1-30.257-8.744c-10.484-13.2-20.031-35.356-4.5-64.729,0,0,19.5-27.7.816-36.049A19.23,19.23,0,0,0,163.339,132.43Z" transform="translate(-40.259 -11.778)" fill="#ffd200"/>
    <path id="Path_40103" data-name="Path 40103" d="M148.248,133.47l4.936,24.763H142.1l-3.522-21.485Z" transform="translate(-33.749 -11.335)" fill="#ffd200"/>
    <path id="Path_40104" data-name="Path 40104" d="M148.248,133.47l4.936,24.763H142.1l-3.522-21.485Z" transform="translate(-33.749 -11.335)" fill="#fff" opacity="0.51"/>
    <path id="Path_40105" data-name="Path 40105" d="M177.212,142.7s-15.312-5.983-16.821,0,19.038,8.676,19.038,8.676Z" transform="translate(-25.929 -8.97)" fill="#f4a28c"/>
    <ellipse id="Ellipse_674" data-name="Ellipse 674" cx="5.807" cy="5.807" rx="5.807" ry="5.807" transform="translate(128.574 133.122)" fill="#ffd200"/>
    <ellipse id="Ellipse_675" data-name="Ellipse 675" cx="31.222" cy="31.222" rx="31.222" ry="31.222" transform="translate(44.589 213.217)" fill="#24285b"/>
    <ellipse id="Ellipse_676" data-name="Ellipse 676" cx="20.887" cy="20.887" rx="20.887" ry="20.887" transform="translate(54.924 223.552)" fill="#fff"/>
    <path id="Path_40106" data-name="Path 40106" d="M123.307,252.4a22.927,22.927,0,1,1,22.927-22.927A22.927,22.927,0,0,1,123.307,252.4Zm0-41.774a18.847,18.847,0,1,0,18.847,18.847A18.847,18.847,0,0,0,123.307,210.63Z" transform="translate(-47.496 14.962)" fill="#68e1fd"/>
    <path id="Path_40107" data-name="Path 40107" d="M231.3,212.837S219.06,227.9,216.49,239.952h28.557l9.288-16.576-8.8-15.326Z" transform="translate(-5.714 15.502)" fill="#fff" opacity="0.11"/>
    <ellipse id="Ellipse_677" data-name="Ellipse 677" cx="31.222" cy="31.222" rx="31.222" ry="31.222" transform="translate(233.595 213.217)" fill="#24285b"/>
    <ellipse id="Ellipse_678" data-name="Ellipse 678" cx="20.887" cy="20.887" rx="20.887" ry="20.887" transform="translate(243.929 223.552)" fill="#fff"/>
    <path id="Path_40108" data-name="Path 40108" d="M262.283,252.4a22.927,22.927,0,1,1,22.941-22.932A22.927,22.927,0,0,1,262.283,252.4Zm0-41.774a18.847,18.847,0,1,0,18.861,18.852A18.847,18.847,0,0,0,262.283,210.63Z" transform="translate(2.52 14.962)" fill="#68e1fd"/>
    <ellipse id="Ellipse_679" data-name="Ellipse 679" cx="5.807" cy="5.807" rx="5.807" ry="5.807" transform="translate(128.574 133.122)" opacity="0.08"/>
    <path id="Path_40109" data-name="Path 40109" d="M127.779,190s-17.8,2.108-26.993,17.025a3.59,3.59,0,0,0,3.7,5.439C115.2,210.6,137,210.656,162.509,232.087Z" transform="translate(-47.548 9.007)" fill="#ffd200"/>
    <path id="Path_40110" data-name="Path 40110" d="M127.779,190s-17.8,2.108-26.993,17.025a3.59,3.59,0,0,0,3.7,5.439C115.2,210.6,137,210.656,162.509,232.087Z" transform="translate(-47.548 9.007)" opacity="0.08"/>
    <path id="Path_40111" data-name="Path 40111" d="M196.492,197.3s-15.842-12.674-9.043-23.593,38.783.748,63.641-7.534,48.071-1.754,31,16.073Z" transform="translate(-16.774 -0.847)" fill="#ffd200"/>
    <path id="Path_40112" data-name="Path 40112" d="M196.492,197.3s-15.842-12.674-9.043-23.593,38.783.748,63.641-7.534,48.071-1.754,31,16.073Z" transform="translate(-16.774 -0.847)" opacity="0.17"/>
    <ellipse id="Ellipse_680" data-name="Ellipse 680" cx="5.467" cy="10.362" rx="5.467" ry="10.362" transform="matrix(0.151, -0.989, 0.989, 0.151, 209.559, 10.808)" fill="#ffd200"/>
    <path id="Path_40113" data-name="Path 40113" d="M217.855,228.519s-17.216-16.9,0-29.917c15.421-11.695,50.722-18.956,72.969-3.372a6.092,6.092,0,0,1-.979,10.457C275,212.771,242.781,226.887,217.855,228.519Z" transform="translate(-7.976 7.68)" fill="#ffd200"/>
    <path id="Path_40114" data-name="Path 40114" d="M217.855,228.519s-17.216-16.9,0-29.917c15.421-11.695,50.722-18.956,72.969-3.372a6.092,6.092,0,0,1-.979,10.457C275,212.771,242.781,226.887,217.855,228.519Z" transform="translate(-7.976 7.68)" opacity="0.08"/>
    <path id="Path_40115" data-name="Path 40115" d="M273.451,197.22a55.917,55.917,0,0,0,13.87,15.108,2.053,2.053,0,0,1-1.822,3.6,43.284,43.284,0,0,1-20.289-12.456Z" transform="translate(11.818 11.605)" fill="#ffd200"/>
    <path id="Path_40116" data-name="Path 40116" d="M148.1,53.578a11.5,11.5,0,0,0-5.045,7.982c-.5,3.644-.258,8.159,3.549,9.872,6.8,3.019,14.809,1.795,14.809,1.795s-.68,13.082,8.73,12.511,11.11-15.992,8.077-23.906C175.429,54.476,164.51,42.686,148.1,53.578Z" transform="translate(-32.21 -41.673)" fill="#68e1fd"/>
    <path id="Path_40117" data-name="Path 40117" d="M145.792,63.2s-13.517,7.7-7.493,9.968,25.348-4.991,25.348-4.991S148.4,69.8,145.792,63.2Z" transform="translate(-34.407 -36.622)" fill="#24285b"/>
    <path id="Path_40118" data-name="Path 40118" d="M178.646,207.078s-.367,5.032-4.392,6.541-3.971,5.848,0,5.861,12.239-7.466,12.239-7.466l-1.945-5.875Z" transform="translate(-21.991 14.815)" fill="#68e1fd"/>
    <ellipse id="Ellipse_681" data-name="Ellipse 681" cx="5.521" cy="5.521" rx="5.521" ry="5.521" transform="translate(130.763 24.946)" fill="#fff" opacity="0.46"/>
    <path id="Path_40119" data-name="Path 40119" d="M143.8,178.225a3.821,3.821,0,0,0-6.867-2.638c-5.616,7.466-10.661,16.454-7.7,21.853,5.78,10.539,12.769,12.579,15.231,5.439C146.19,197.834,142.831,189.457,143.8,178.225Z" transform="translate(-37.429 3.267)" fill="#fff" opacity="0.17"/>
  </g>
</svg>
