<svg xmlns="http://www.w3.org/2000/svg" width="17.023" height="17.053" viewBox="0 0 17.023 17.053">
  <path id="Icon_feather-phone-call" data-name="Icon feather-phone-call" d="M9.246,4.558a3.823,3.823,0,0,0-3.02,3.02M9.246,1.5A6.881,6.881,0,0,0,3.168,7.57m.765,6.1v2.294A1.529,1.529,0,0,0,5.6,17.494a15.13,15.13,0,0,0,6.6-2.347,14.908,14.908,0,0,0,4.587-4.587,15.13,15.13,0,0,0,2.347-6.628A1.529,1.529,0,0,0,17.61,2.265H15.316a1.529,1.529,0,0,0-1.529,1.315,9.816,9.816,0,0,1-.535,2.148A1.529,1.529,0,0,0,13.6,7.341l.971.971A12.232,12.232,0,0,1,9.98,12.9l-.971-.971A1.529,1.529,0,0,0,7.4,11.584a9.816,9.816,0,0,1-2.148.535A1.529,1.529,0,0,0,3.932,13.671Z" transform="translate(-2.615 -0.948)" fill="none" stroke="#fff" stroke-linecap="round" stroke-linejoin="round" stroke-width="1"/>
</svg>
