<svg xmlns="http://www.w3.org/2000/svg" width="26.339" height="30.101" viewBox="0 0 26.339 30.101">
  <path id="Icon_metro-attachment" data-name="Icon metro-attachment" d="M22.167,11.542,20.257,9.633l-9.548,9.546a4.05,4.05,0,1,0,5.728,5.728L27.9,13.451a6.75,6.75,0,0,0-9.547-9.546L6.319,15.934l-.026.025A9.415,9.415,0,0,0,19.609,29.272l.024-.026h0l8.211-8.21-1.91-1.908-8.211,8.209-.025.025a6.714,6.714,0,0,1-9.5-9.494l.026-.025v0L20.257,5.814a4.05,4.05,0,1,1,5.729,5.727L14.529,23a1.35,1.35,0,0,1-1.91-1.908l9.548-9.547Z" transform="translate(-3.535 -1.928)" fill="#fff"/>
</svg>
