<svg xmlns="http://www.w3.org/2000/svg" width="33.636" height="33.698" viewBox="0 0 33.636 33.698">
  <path id="Icon_feather-phone-call" data-name="Icon feather-phone-call" d="M15.568,7.739A7.8,7.8,0,0,0,9.407,13.9M15.568,1.5a14.038,14.038,0,0,0-12.4,12.385m1.56,12.447v4.679a3.12,3.12,0,0,0,3.4,3.12,30.869,30.869,0,0,0,13.461-4.789,30.416,30.416,0,0,0,9.359-9.359A30.868,30.868,0,0,0,35.736,6.46a3.12,3.12,0,0,0-3.1-3.4H27.953a3.12,3.12,0,0,0-3.12,2.683,20.028,20.028,0,0,1-1.092,4.383,3.12,3.12,0,0,0,.7,3.291L26.424,15.4a24.957,24.957,0,0,1-9.359,9.359l-1.981-1.981a3.12,3.12,0,0,0-3.291-.7A20.028,20.028,0,0,1,7.41,23.166,3.12,3.12,0,0,0,4.728,26.332Z" transform="translate(-2.615 -0.948)" fill="none" stroke="#00b7ff" stroke-linecap="round" stroke-linejoin="round" stroke-width="1"/>
</svg>
